<?xml version="1.0" encoding="utf-8"?>
<!-- Generator: Adobe Illustrator 16.0.0, SVG Export Plug-In . SVG Version: 6.00 Build 0)  -->
<!DOCTYPE svg PUBLIC "-//W3C//DTD SVG 1.1//EN" "http://www.w3.org/Graphics/SVG/1.1/DTD/svg11.dtd">
<svg version="1.1" id="Capa_1" xmlns="http://www.w3.org/2000/svg" xmlns:xlink="http://www.w3.org/1999/xlink" x="0px" y="0px"
	 width="26.618px" height="26.625px" viewBox="-3.382 -3.375 26.618 26.625" enable-background="new -3.382 -3.375 26.618 26.625"
	 xml:space="preserve">
<g>
	<circle fill="#FF9E1D" stroke="#512502" stroke-miterlimit="10" cx="10.033" cy="10.471" r="12.442"/>
	<g>
		<g>
			<path fill="#F7F3F0" d="M15.787,2.191h-0.546V1.595c0-0.753-0.592-1.366-1.322-1.366c-0.734,0-1.325,0.613-1.325,1.366v0.594
				h-1.362V1.595c0-0.753-0.593-1.366-1.325-1.366S8.582,0.842,8.582,1.595v0.594H7.22V1.595c0-0.753-0.594-1.366-1.325-1.366
				S4.569,0.842,4.569,1.595v0.594H3.875c-1.165,0-2.11,0.945-2.11,2.11v11.913c0,1.163,0.945,2.109,2.11,2.109h11.911
				c1.163,0,2.111-0.946,2.111-2.109V4.3C17.898,3.138,16.95,2.191,15.787,2.191z M13.336,1.595c0-0.342,0.261-0.621,0.582-0.621
				c0.319,0,0.581,0.279,0.581,0.621v2.431c0,0.341-0.262,0.62-0.581,0.62c-0.321,0-0.582-0.279-0.582-0.62V1.595z M9.326,1.595
				c0-0.342,0.26-0.621,0.58-0.621c0.321,0,0.581,0.279,0.581,0.621v2.431c0,0.341-0.26,0.62-0.581,0.62
				c-0.32,0-0.58-0.279-0.58-0.62V1.595z M5.313,1.595c0-0.342,0.259-0.621,0.581-0.621c0.321,0,0.581,0.279,0.581,0.621v2.431
				c0,0.341-0.26,0.62-0.581,0.62c-0.321,0-0.581-0.279-0.581-0.62V1.595z M16.655,16.212c0,0.479-0.388,0.868-0.869,0.868H3.875
				c-0.481,0-0.869-0.391-0.869-0.868V5.292h13.651v10.921h-0.002V16.212z"/>
			<rect x="4.123" y="7.49" fill="#F7F3F0" width="2.281" height="2.03"/>
			<rect x="7.167" y="7.49" fill="#F7F3F0" width="2.281" height="2.03"/>
			<rect x="10.213" y="7.49" fill="#F7F3F0" width="2.28" height="2.03"/>
			<rect x="13.259" y="7.49" fill="#F7F3F0" width="2.281" height="2.03"/>
			<rect x="4.123" y="10.202" fill="#F7F3F0" width="2.281" height="2.029"/>
			<rect x="7.167" y="10.202" fill="#F7F3F0" width="2.281" height="2.029"/>
			<rect x="10.213" y="10.202" fill="#F7F3F0" width="2.28" height="2.029"/>
			<rect x="13.259" y="10.202" fill="#F7F3F0" width="2.281" height="2.029"/>
			<rect x="4.123" y="12.906" fill="#F7F3F0" width="2.281" height="2.029"/>
			<rect x="7.167" y="12.906" fill="#F7F3F0" width="2.281" height="2.029"/>
			<rect x="10.213" y="12.906" fill="#F7F3F0" width="2.28" height="2.029"/>
			<rect x="13.259" y="12.906" fill="#F7F3F0" width="2.281" height="2.029"/>
		</g>
	</g>
</g>
</svg>
