<?xml version="1.0" encoding="utf-8"?>
<!-- Generator: Adobe Illustrator 16.0.0, SVG Export Plug-In . SVG Version: 6.00 Build 0)  -->
<!DOCTYPE svg PUBLIC "-//W3C//DTD SVG 1.1//EN" "http://www.w3.org/Graphics/SVG/1.1/DTD/svg11.dtd">
<svg version="1.1" id="Capa_1" xmlns="http://www.w3.org/2000/svg" xmlns:xlink="http://www.w3.org/1999/xlink" x="0px" y="0px"
	 width="29.537px" height="28.217px" viewBox="0 0 29.537 28.217" enable-background="new 0 0 29.537 28.217" xml:space="preserve">
<g>
	<circle fill="#FF9E1D" stroke="#512502" stroke-miterlimit="10" cx="14.771" cy="14.109" r="13.011"/>
	<g>
		<polygon fill="#F4BD64" stroke="#F4F3F2" stroke-width="0.75" stroke-miterlimit="10" points="10.563,13.355 6.065,21.831 
			10.15,21.454 12.126,25.048 16.626,16.573 		"/>
		<g>
			<path fill="#F4BD64" stroke="#F4F3F2" stroke-width="0.75" stroke-miterlimit="10" d="M11.079,22.579
				c0.125-0.271-0.006-0.596-0.271-0.734l-0.259-0.137c-0.26-0.148-0.357-0.477-0.217-0.742c0.144-0.27,0.479-0.373,0.75-0.23
				l0.73,0.389c0.227,0.121,0.509,0.033,0.626-0.193l0.019-0.035c0.133-0.215,0.055-0.498-0.168-0.617l-2.188-1.16
				c-0.267-0.143-0.397-0.465-0.272-0.736c0.137-0.289,0.483-0.402,0.762-0.254l2.029,1.076c0.227,0.119,0.51,0.033,0.629-0.193
				l0.013-0.029l0.003-0.008c0.129-0.236,0.039-0.533-0.2-0.66l-1.14-0.604c-0.266-0.143-0.396-0.465-0.271-0.74
				c0.136-0.285,0.483-0.402,0.763-0.254l1.258,0.668c0.234,0.125,0.516,0.02,0.637-0.217c0.002-0.004,0.002-0.004,0.003-0.006
				c0.002-0.004,0.002-0.004,0.003-0.008c0.128-0.232,0.059-0.523-0.178-0.648l-1.355-0.719c-0.265-0.141-0.396-0.463-0.271-0.734
				c0.137-0.289,0.483-0.404,0.763-0.256l3.348,1.775l-4.498,8.475l-1.24-2.252C10.966,22.739,11.036,22.673,11.079,22.579z"/>
			<polygon fill="#F4BD64" stroke="#F4F3F2" stroke-width="0.75" stroke-miterlimit="10" points="18.978,13.355 23.476,21.831 
				19.391,21.454 17.415,25.048 12.917,16.573 			"/>
		</g>
		<path fill="#F4BD64" stroke="#F4F3F2" stroke-width="0.75" stroke-miterlimit="10" d="M18.462,22.579
			c-0.127-0.271,0.006-0.596,0.27-0.734l0.26-0.137c0.258-0.148,0.356-0.477,0.215-0.742c-0.143-0.27-0.479-0.373-0.748-0.23
			l-0.732,0.389c-0.227,0.121-0.51,0.033-0.626-0.193l-0.019-0.035c-0.134-0.215-0.055-0.498,0.168-0.617l2.188-1.16
			c0.267-0.143,0.397-0.465,0.272-0.736c-0.137-0.289-0.482-0.404-0.762-0.256l-2.029,1.078c-0.227,0.119-0.51,0.031-0.629-0.193
			l-0.013-0.031l-0.003-0.006c-0.129-0.236-0.039-0.535,0.2-0.66l1.138-0.604c0.268-0.143,0.397-0.465,0.271-0.74
			c-0.135-0.285-0.483-0.402-0.762-0.254l-1.26,0.668c-0.234,0.125-0.516,0.021-0.638-0.215c-0.002-0.004-0.002-0.004-0.003-0.006
			c-0.002-0.004-0.002-0.004-0.003-0.008c-0.128-0.232-0.058-0.523,0.179-0.648l1.355-0.719c0.265-0.141,0.395-0.465,0.271-0.734
			c-0.137-0.289-0.483-0.404-0.763-0.256l-3.348,1.777l4.498,8.475l1.239-2.254C18.575,22.739,18.505,22.673,18.462,22.579z"/>
		<circle fill="#F4BD64" stroke="#F4F3F2" stroke-width="0.75" stroke-miterlimit="10" cx="14.771" cy="11.967" r="7.515"/>
		<path fill="#F4BD64" stroke="#F4F3F2" stroke-width="0.75" stroke-miterlimit="10" d="M15.79,11.105h-4.763
			c-0.37,0-0.674-0.304-0.674-0.674l0.005-0.046v-0.012c-0.005-0.391,0.313-0.709,0.705-0.709h3.301c0.438,0,0.824-0.324,0.85-0.763
			c0.021-0.458-0.344-0.844-0.803-0.844h-3.498c-0.386,0-0.674-0.324-0.668-0.71c0-0.005,0-0.005,0-0.012c0-0.004,0-0.004,0-0.01
			c-0.006-0.386,0.282-0.709,0.668-0.709h3.66c0.432,0,0.817-0.324,0.844-0.758c0.021-0.463-0.346-0.844-0.804-0.844h-2.68
			c-2.731,1.126-4.658,3.813-4.658,6.951c0,3.139,1.927,5.825,4.659,6.95h3.4c0.434,0,0.819-0.324,0.846-0.756
			c0.021-0.465-0.346-0.846-0.803-0.846h-3.871c-0.456,0-0.823-0.381-0.799-0.844c0.021-0.432,0.412-0.758,0.845-0.758h1.5
			c0.432-0.012,0.78-0.365,0.78-0.799c0-0.444-0.36-0.804-0.804-0.804h-2.274c-0.369,0-0.674-0.303-0.668-0.674v-0.058
			c-0.026-0.364,0.268-0.674,0.633-0.674h5.023c0.437,0,0.822-0.324,0.848-0.756C16.613,11.486,16.247,11.105,15.79,11.105z"/>
		<path fill="#F4BD64" stroke="#F4F3F2" stroke-width="0.75" stroke-miterlimit="10" d="M14.771,17.331
			c-2.958,0-5.364-2.406-5.364-5.364c0-2.957,2.406-5.364,5.364-5.364s5.365,2.407,5.365,5.364
			C20.136,14.925,17.729,17.331,14.771,17.331z"/>
		<path opacity="0.2" fill="#F4BD64" stroke="#F4F3F2" stroke-width="0.75" stroke-miterlimit="10" enable-background="new    " d="
			M20.136,11.967c0-2.854-2.243-5.188-5.057-5.35h-0.5c-0.33,0-0.625,0.248-0.645,0.577c-0.016,0.353,0.263,0.644,0.613,0.644h2.951
			c0.348,0,0.627,0.291,0.609,0.645c-0.018,0.331-0.314,0.578-0.645,0.578h-1.145c-0.328,0.01-0.595,0.279-0.595,0.611
			c0,0.336,0.274,0.611,0.612,0.611h1.734c0.283,0,0.514,0.232,0.51,0.514v0.043c0.02,0.279-0.205,0.514-0.482,0.514h-3.831
			c-0.333,0-0.627,0.247-0.647,0.577c-0.016,0.353,0.262,0.644,0.612,0.644h3.632c0.283,0,0.514,0.231,0.514,0.514l-0.004,0.035
			v0.008c0.004,0.299-0.238,0.543-0.537,0.543h-2.519c-0.334,0-0.628,0.246-0.647,0.58c-0.017,0.35,0.263,0.645,0.611,0.645h2.668
			c0.293,0,0.514,0.246,0.51,0.541c0,0.004,0,0.004,0,0.008s0,0.004,0,0.008c0.004,0.295-0.215,0.543-0.51,0.543h-2.791
			c-0.33,0-0.623,0.246-0.644,0.576c-0.017,0.354,0.262,0.645,0.612,0.645h0.735C18.3,16.712,20.136,14.549,20.136,11.967z"/>
		<path fill="#F4BD64" stroke="#F4F3F2" stroke-width="0.75" stroke-miterlimit="10" d="M18.516,10.779h-2.608L15.1,8.297
			c-0.104-0.318-0.556-0.318-0.659,0l-0.807,2.481h-2.608c-0.335,0-0.476,0.431-0.204,0.626l2.111,1.534l-0.807,2.482
			c-0.104,0.318,0.262,0.584,0.533,0.387l2.11-1.534l2.11,1.534c0.271,0.197,0.638-0.068,0.533-0.387l-0.806-2.482l2.111-1.534
			C18.991,11.209,18.852,10.779,18.516,10.779z"/>
	</g>
</g>
</svg>
