<?xml version="1.0" encoding="utf-8"?>
<!-- Generator: Adobe Illustrator 16.0.0, SVG Export Plug-In . SVG Version: 6.00 Build 0)  -->
<!DOCTYPE svg PUBLIC "-//W3C//DTD SVG 1.1//EN" "http://www.w3.org/Graphics/SVG/1.1/DTD/svg11.dtd">
<svg version="1.1" id="Capa_1" xmlns="http://www.w3.org/2000/svg" xmlns:xlink="http://www.w3.org/1999/xlink" x="0px" y="0px"
	 width="27.105px" height="27.186px" viewBox="0 0 27.105 27.186" enable-background="new 0 0 27.105 27.186" xml:space="preserve">
<circle fill="#FF9E1D" stroke="#512502" stroke-miterlimit="10" cx="13.553" cy="13.593" r="13.011"/>
<g>
	<path fill="#FFFFFF" stroke="#663500" stroke-width="0.5" stroke-miterlimit="10" d="M16.047,7.332
		c1.047,0.655,1.78,1.768,1.917,3.061c0.426,0.198,0.898,0.313,1.401,0.313c1.837,0,3.323-1.486,3.323-3.318
		c0-1.839-1.485-3.326-3.323-3.326C17.549,4.059,16.074,5.52,16.047,7.332z M13.868,14.137c1.835,0,3.323-1.488,3.323-3.324
		c0-1.834-1.487-3.322-3.323-3.322s-3.323,1.488-3.323,3.322C10.546,12.648,12.033,14.137,13.868,14.137z M15.28,14.361H12.46
		c-2.348,0-4.255,1.908-4.255,4.257v3.447l0.008,0.056l0.238,0.073c2.239,0.699,4.184,0.934,5.785,0.934
		c3.126,0,4.938-0.893,5.05-0.946l0.223-0.115h0.023v-3.447C19.533,16.269,17.625,14.361,15.28,14.361z M20.777,10.933h-2.799
		c-0.03,1.118-0.508,2.126-1.264,2.854c2.086,0.619,3.611,2.553,3.611,4.837v1.063c2.764-0.102,4.354-0.885,4.459-0.937l0.223-0.114
		h0.024v-3.449C25.031,12.842,23.122,10.933,20.777,10.933z M8.039,10.704c0.649,0,1.255-0.189,1.767-0.512
		c0.163-1.062,0.731-1.99,1.545-2.624c0.004-0.063,0.009-0.12,0.009-0.184c0-1.839-1.488-3.326-3.321-3.326
		c-1.837,0-3.323,1.487-3.323,3.326C4.716,9.218,6.202,10.704,8.039,10.704z M11.024,13.786c-0.752-0.725-1.229-1.726-1.264-2.837
		c-0.104-0.01-0.207-0.017-0.313-0.017H6.628c-2.347,0-4.257,1.908-4.257,4.253v3.449l0.012,0.052l0.235,0.076
		c1.798,0.563,3.399,0.82,4.792,0.899v-1.04C7.41,16.339,8.936,14.404,11.024,13.786z"/>
</g>
</svg>
