<?xml version="1.0" encoding="utf-8"?>
<!-- Generator: Adobe Illustrator 16.0.0, SVG Export Plug-In . SVG Version: 6.00 Build 0)  -->
<!DOCTYPE svg PUBLIC "-//W3C//DTD SVG 1.1//EN" "http://www.w3.org/Graphics/SVG/1.1/DTD/svg11.dtd">
<svg version="1.1" id="Capa_1" xmlns="http://www.w3.org/2000/svg" xmlns:xlink="http://www.w3.org/1999/xlink" x="0px" y="0px"
	 width="26.25px" height="26.75px" viewBox="0 0 26.25 26.75" enable-background="new 0 0 26.25 26.75" xml:space="preserve">
<g>
	<circle fill="#FF9E1D" stroke="#512502" stroke-miterlimit="10" cx="13.125" cy="13.375" r="12.442"/>
	<path fill="#FFFFFF" d="M5.628,14.692c-0.438,0-0.785-0.347-0.785-0.795c0-3.056,2.471-5.548,5.523-5.548h5.516
		c0.438,0,0.799,0.359,0.799,0.785c0,0.449-0.359,0.81-0.799,0.81h-5.516c-2.179,0-3.951,1.774-3.951,3.953
		C6.416,14.347,6.066,14.692,5.628,14.692z"/>
	<path fill="#FFFFFF" d="M11.941,13.112c-0.244,0-0.482-0.113-0.643-0.339c-0.254-0.346-0.178-0.848,0.182-1.101l3.459-2.539
		L11.48,6.616c-0.357-0.27-0.436-0.764-0.182-1.121c0.26-0.347,0.754-0.426,1.104-0.168l5.22,3.807l-5.222,3.818
		C12.267,13.067,12.101,13.112,11.941,13.112z"/>
	<path fill="#FFFFFF" d="M15.49,18.659H9.968c-0.43,0-0.788-0.359-0.788-0.785c0-0.449,0.358-0.809,0.788-0.809h5.522
		c2.18,0,3.949-1.775,3.949-3.953c0-0.449,0.352-0.795,0.791-0.795c0.436,0,0.785,0.346,0.785,0.795
		C21.016,16.167,18.537,18.659,15.49,18.659z"/>
	<path fill="#FFFFFF" d="M13.918,21.827c-0.17,0-0.327-0.045-0.474-0.146l-5.211-3.807l5.214-3.818
		c0.356-0.268,0.852-0.18,1.106,0.182c0.25,0.345,0.174,0.847-0.178,1.1l-3.459,2.539l3.459,2.518
		c0.35,0.27,0.428,0.764,0.174,1.121C14.4,21.714,14.152,21.827,13.918,21.827z"/>
</g>
</svg>
