<?xml version="1.0" encoding="utf-8"?>
<!-- Generator: Adobe Illustrator 16.0.0, SVG Export Plug-In . SVG Version: 6.00 Build 0)  -->
<!DOCTYPE svg PUBLIC "-//W3C//DTD SVG 1.1//EN" "http://www.w3.org/Graphics/SVG/1.1/DTD/svg11.dtd">
<svg version="1.1" id="Layer_1" xmlns="http://www.w3.org/2000/svg" xmlns:xlink="http://www.w3.org/1999/xlink" x="0px" y="0px"
	 width="108px" height="35px" viewBox="0 0 108 35" enable-background="new 0 0 108 35" xml:space="preserve">
<g display="none">
	<defs>
		<rect id="SVGID_1_" width="108" height="35"/>
	</defs>
	<clipPath id="SVGID_2_" display="inline">
		<use xlink:href="#SVGID_1_"  overflow="visible"/>
	</clipPath>
	
		<rect display="inline" clip-path="url(#SVGID_2_)" fill="#D66B6B" stroke="#000000" stroke-miterlimit="10" width="108" height="35"/>
	<g display="inline" clip-path="url(#SVGID_2_)">
		<path fill="#FFFFFF" d="M46.949,12.282l4.463,11.358h-1.635l0,0c-0.183,0-0.333-0.045-0.451-0.137l0,0l0,0
			c-0.118-0.092-0.204-0.206-0.256-0.342l0,0l-0.848-2.317h-4.706l-0.848,2.317l0,0c-0.042,0.121-0.125,0.23-0.248,0.33l0,0l0,0
			c-0.123,0.1-0.273,0.148-0.451,0.148l0,0h-1.642l4.462-11.358H46.949L46.949,12.282z M45.441,15.589l-1.383,3.763h3.622
			l-1.383-3.778l0,0c-0.063-0.167-0.132-0.365-0.208-0.593l0,0l0,0c-0.076-0.228-0.15-0.475-0.224-0.742l0,0l0,0
			c-0.074,0.267-0.146,0.516-0.216,0.746l0,0l0,0C45.578,15.215,45.509,15.417,45.441,15.589L45.441,15.589L45.441,15.589z
			 M55.992,23.768L55.992,23.768L55.992,23.768c-0.696,0-1.232-0.198-1.61-0.594l0,0l0,0c-0.377-0.395-0.566-0.941-0.566-1.638l0,0
			v-4.502h-0.817l0,0c-0.104,0-0.195-0.034-0.271-0.102l0,0l0,0c-0.076-0.068-0.114-0.17-0.114-0.306l0,0v-0.77l1.297-0.212
			l0.408-2.2l0,0c0.021-0.104,0.07-0.186,0.145-0.243l0,0l0,0c0.076-0.058,0.172-0.087,0.287-0.087l0,0h1.006v2.538h2.121v1.382
			h-2.121v4.368l0,0c0,0.251,0.063,0.447,0.188,0.59l0,0l0,0c0.125,0.141,0.293,0.212,0.503,0.212l0,0l0,0
			c0.12,0,0.222-0.015,0.302-0.044l0,0l0,0c0.082-0.029,0.152-0.059,0.213-0.09l0,0l0,0c0.061-0.031,0.113-0.062,0.161-0.09l0,0l0,0
			c0.047-0.029,0.094-0.043,0.142-0.043l0,0l0,0c0.057,0,0.104,0.014,0.141,0.043l0,0l0,0c0.037,0.028,0.076,0.071,0.117,0.129l0,0
			l0.582,0.942l0,0c-0.283,0.236-0.607,0.414-0.974,0.534l0,0l0,0C56.766,23.707,56.385,23.768,55.992,23.768z M60.424,11.967h1.939
			v11.674h-1.939V11.967L60.424,11.967z M71.745,18.551v5.09h-0.872l0,0c-0.184,0-0.327-0.027-0.432-0.082l0,0l0,0
			c-0.105-0.055-0.184-0.166-0.235-0.334l0,0l-0.173-0.574l0,0c-0.205,0.184-0.405,0.346-0.602,0.484l0,0l0,0
			c-0.196,0.139-0.399,0.256-0.608,0.35l0,0l0,0c-0.21,0.094-0.433,0.165-0.669,0.211l0,0l0,0c-0.234,0.048-0.496,0.072-0.784,0.072
			l0,0l0,0c-0.341,0-0.655-0.047-0.943-0.139l0,0l0,0c-0.288-0.092-0.536-0.23-0.743-0.414l0,0l0,0
			c-0.206-0.184-0.367-0.412-0.482-0.686l0,0l0,0c-0.115-0.273-0.174-0.591-0.174-0.953l0,0l0,0c0-0.305,0.08-0.605,0.24-0.903l0,0
			l0,0c0.16-0.296,0.426-0.564,0.797-0.804l0,0l0,0c0.373-0.238,0.867-0.438,1.485-0.596l0,0l0,0
			c0.618-0.156,1.386-0.235,2.302-0.235l0,0v-0.476l0,0c0-0.543-0.113-0.946-0.342-1.207l0,0l0,0
			c-0.227-0.261-0.559-0.392-0.992-0.392l0,0l0,0c-0.315,0-0.577,0.037-0.787,0.11l0,0l0,0c-0.209,0.073-0.391,0.155-0.545,0.247
			l0,0l0,0c-0.155,0.092-0.298,0.175-0.429,0.248l0,0l0,0c-0.132,0.074-0.275,0.11-0.432,0.11l0,0l0,0
			c-0.132,0-0.244-0.034-0.339-0.102l0,0l0,0c-0.094-0.069-0.17-0.153-0.228-0.252l0,0l-0.353-0.621l0,0
			c0.926-0.848,2.045-1.272,3.354-1.272l0,0l0,0c0.472,0,0.893,0.077,1.262,0.232l0,0l0,0c0.369,0.154,0.682,0.369,0.938,0.644l0,0
			l0,0c0.257,0.274,0.452,0.603,0.585,0.986l0,0l0,0C71.678,17.676,71.745,18.095,71.745,18.551L71.745,18.551L71.745,18.551z
			 M67.975,22.432L67.975,22.432L67.975,22.432c0.199,0,0.382-0.019,0.549-0.055l0,0l0,0c0.168-0.037,0.327-0.092,0.477-0.165l0,0
			l0,0c0.149-0.073,0.293-0.163,0.432-0.271l0,0l0,0c0.139-0.107,0.279-0.234,0.42-0.381l0,0v-1.336l0,0
			c-0.564,0-1.037,0.035-1.418,0.106l0,0l0,0c-0.379,0.071-0.685,0.162-0.914,0.272l0,0l0,0c-0.231,0.111-0.395,0.24-0.492,0.388
			l0,0l0,0c-0.097,0.147-0.146,0.309-0.146,0.483l0,0l0,0c0,0.342,0.101,0.588,0.304,0.735l0,0l0,0
			C67.387,22.357,67.649,22.432,67.975,22.432z M76.468,23.641h-1.94v-8.06h1.186l0,0c0.252,0,0.416,0.118,0.495,0.354l0,0
			l0.134,0.636l0,0c0.162-0.167,0.334-0.319,0.514-0.456l0,0l0,0c0.182-0.136,0.373-0.254,0.574-0.353l0,0l0,0
			c0.201-0.1,0.418-0.175,0.648-0.228l0,0l0,0c0.23-0.053,0.482-0.079,0.754-0.079l0,0l0,0c0.439,0,0.83,0.075,1.171,0.224l0,0l0,0
			c0.34,0.149,0.624,0.359,0.853,0.629l0,0l0,0c0.228,0.269,0.4,0.591,0.519,0.966l0,0l0,0c0.117,0.375,0.176,0.787,0.176,1.237l0,0
			v5.13h-1.94v-5.13l0,0c0-0.491-0.113-0.873-0.342-1.143l0,0l0,0c-0.228-0.27-0.569-0.404-1.024-0.404l0,0l0,0
			c-0.335,0-0.649,0.076-0.943,0.228l0,0l0,0c-0.293,0.151-0.57,0.358-0.832,0.62l0,0V23.641L76.468,23.641z M86.98,23.768
			L86.98,23.768L86.98,23.768c-0.697,0-1.234-0.198-1.611-0.594l0,0l0,0c-0.377-0.395-0.564-0.941-0.564-1.638l0,0v-4.502h-0.818
			l0,0c-0.104,0-0.195-0.034-0.271-0.102l0,0l0,0c-0.075-0.068-0.114-0.17-0.114-0.306l0,0v-0.77l1.297-0.212l0.408-2.2l0,0
			c0.021-0.104,0.069-0.186,0.146-0.243l0,0l0,0c0.075-0.058,0.171-0.087,0.286-0.087l0,0h1.006v2.538h2.121v1.382h-2.121v4.368l0,0
			c0,0.251,0.063,0.447,0.189,0.59l0,0l0,0c0.125,0.141,0.292,0.212,0.502,0.212l0,0l0,0c0.12,0,0.221-0.015,0.303-0.044l0,0l0,0
			c0.081-0.029,0.152-0.059,0.212-0.09l0,0l0,0c0.06-0.031,0.113-0.062,0.161-0.09l0,0l0,0c0.047-0.029,0.094-0.043,0.141-0.043l0,0
			l0,0c0.059,0,0.105,0.014,0.143,0.043l0,0l0,0c0.036,0.028,0.076,0.071,0.117,0.129l0,0l0.581,0.942l0,0
			c-0.282,0.236-0.606,0.414-0.974,0.534l0,0l0,0C87.752,23.707,87.373,23.768,86.98,23.768z M91.411,15.581h1.94v8.06h-1.94V15.581
			L91.411,15.581z M93.643,13.232L93.643,13.232L93.643,13.232c0,0.168-0.035,0.325-0.103,0.472l0,0l0,0
			c-0.067,0.146-0.158,0.274-0.271,0.384l0,0l0,0c-0.113,0.11-0.245,0.198-0.396,0.264l0,0l0,0
			c-0.152,0.065-0.314,0.098-0.488,0.098l0,0l0,0c-0.167,0-0.325-0.033-0.475-0.098l0,0l0,0c-0.149-0.066-0.279-0.154-0.389-0.264
			l0,0l0,0c-0.11-0.11-0.198-0.238-0.264-0.384l0,0l0,0c-0.064-0.147-0.098-0.304-0.098-0.472l0,0l0,0
			c0-0.172,0.033-0.335,0.098-0.487l0,0l0,0c0.065-0.152,0.153-0.283,0.264-0.393l0,0l0,0c0.109-0.11,0.239-0.198,0.389-0.263l0,0
			l0,0c0.149-0.065,0.308-0.098,0.475-0.098l0,0l0,0c0.174,0,0.336,0.032,0.488,0.098l0,0l0,0c0.151,0.065,0.283,0.153,0.396,0.263
			l0,0l0,0c0.112,0.11,0.203,0.241,0.271,0.393l0,0l0,0C93.607,12.897,93.643,13.06,93.643,13.232z M101.641,16.453l-0.439,0.699
			l0,0c-0.053,0.084-0.107,0.143-0.165,0.177l0,0l0,0c-0.058,0.034-0.132,0.051-0.22,0.051l0,0l0,0
			c-0.096,0-0.196-0.026-0.303-0.078l0,0l0,0c-0.107-0.052-0.232-0.111-0.373-0.177l0,0l0,0c-0.143-0.065-0.303-0.125-0.483-0.177
			l0,0l0,0c-0.181-0.053-0.394-0.079-0.64-0.079l0,0l0,0c-0.383,0-0.685,0.081-0.904,0.244l0,0l0,0
			c-0.221,0.163-0.33,0.375-0.33,0.636l0,0l0,0c0,0.173,0.057,0.319,0.169,0.437l0,0l0,0c0.112,0.117,0.262,0.221,0.448,0.311l0,0
			l0,0c0.186,0.088,0.396,0.168,0.632,0.238l0,0l0,0c0.235,0.071,0.477,0.148,0.723,0.232l0,0l0,0
			c0.246,0.084,0.487,0.18,0.724,0.287l0,0l0,0c0.234,0.107,0.445,0.243,0.631,0.408l0,0l0,0c0.187,0.165,0.336,0.363,0.449,0.593
			l0,0l0,0c0.112,0.231,0.168,0.509,0.168,0.833l0,0l0,0c0,0.388-0.07,0.744-0.211,1.072l0,0l0,0
			c-0.143,0.327-0.35,0.61-0.621,0.849l0,0l0,0c-0.272,0.238-0.609,0.425-1.01,0.558l0,0l0,0c-0.4,0.134-0.86,0.201-1.379,0.201l0,0
			l0,0c-0.277,0-0.549-0.025-0.813-0.076l0,0l0,0c-0.266-0.049-0.52-0.118-0.762-0.207l0,0l0,0
			c-0.244-0.089-0.469-0.193-0.677-0.314l0,0l0,0c-0.206-0.121-0.389-0.252-0.546-0.393l0,0l0.448-0.738l0,0
			c0.058-0.09,0.126-0.158,0.204-0.205l0,0l0,0c0.078-0.047,0.178-0.07,0.299-0.07l0,0l0,0c0.121,0,0.234,0.034,0.342,0.103l0,0l0,0
			c0.107,0.067,0.232,0.142,0.373,0.22l0,0l0,0c0.141,0.078,0.308,0.152,0.499,0.221l0,0l0,0c0.19,0.067,0.433,0.102,0.726,0.102
			l0,0l0,0c0.23,0,0.429-0.027,0.594-0.083l0,0l0,0c0.165-0.055,0.301-0.127,0.408-0.216l0,0l0,0
			c0.107-0.089,0.187-0.192,0.236-0.311l0,0l0,0c0.049-0.117,0.074-0.239,0.074-0.365l0,0l0,0c0-0.188-0.057-0.343-0.169-0.464l0,0
			l0,0c-0.112-0.12-0.262-0.225-0.447-0.313l0,0l0,0c-0.187-0.09-0.398-0.17-0.637-0.24l0,0l0,0c-0.238-0.07-0.481-0.147-0.729-0.23
			l0,0l0,0c-0.25-0.084-0.493-0.183-0.731-0.295l0,0l0,0c-0.238-0.113-0.45-0.256-0.636-0.429l0,0l0,0
			c-0.187-0.173-0.336-0.385-0.449-0.636l0,0l0,0c-0.111-0.252-0.168-0.556-0.168-0.912l0,0l0,0c0-0.33,0.064-0.644,0.195-0.942l0,0
			l0,0c0.132-0.299,0.324-0.56,0.578-0.782l0,0l0,0c0.254-0.223,0.57-0.401,0.95-0.534l0,0l0,0c0.38-0.134,0.819-0.201,1.315-0.201
			l0,0l0,0c0.557,0,1.062,0.092,1.517,0.275l0,0l0,0C100.957,15.913,101.337,16.154,101.641,16.453L101.641,16.453L101.641,16.453z"
			/>
		<g>
			<path fill="#FFFFFF" d="M29.894,9.22L15.447,0.879L1,9.22v16.683l4.816,2.779V12l9.631-5.56L25.078,12v16.682l4.816-2.779V9.22z"
				/>
			<path fill="#FFFFFF" d="M20.262,14.781L15.447,12l-4.816,2.781v5.56l4.816,2.78l4.815-2.78V14.781z"/>
			<path fill="#FFFFFF" d="M20.262,25.902l-4.815,2.779l-4.816-2.779v5.56l4.816,2.78l4.815-2.78V25.902z"/>
		</g>
	</g>
</g>
<g>
	<path fill-rule="evenodd" clip-rule="evenodd" fill="#BE9D1C" d="M38.468,14.79c0.352,0.638,0.091,1.435,0.531,2.05
		c0,0.062,0,0.124,0,0.185c-0.257,0.001-0.359,0.186-0.468,0.378c-1.517,2.697-3.931,4.257-6.732,5.341
		c-0.455,0.176-0.815,0.123-1.169-0.176c0.107-0.439,0.215-0.877,0.322-1.316c0.299,0,0.552,0.236,0.888,0.104
		c2.166-0.865,4.066-2.063,5.298-4.124c0.747-0.498,0.348-1,0.008-1.503C37.907,15.867,37.914,14.942,38.468,14.79z"/>
	<path fill-rule="evenodd" clip-rule="evenodd" fill="#B69511" d="M30.63,22.568c0.354,0.299,0.714,0.352,1.169,0.176
		c2.801-1.084,5.215-2.645,6.732-5.341c0.108-0.192,0.211-0.377,0.468-0.378c0,0.679,0,1.358,0,2.038
		c-0.149,0.023-0.31,0.041-0.334,0.232c-0.031,0.248,0.146,0.295,0.334,0.322c0,0.184,0,0.369,0,0.555
		c-0.069-0.002-0.139-0.004-0.207-0.006c-0.117,0.002-0.233,0.004-0.349,0.006c-0.335-0.037-0.598,0.096-0.809,0.348
		c-0.619,0.738-1.381,1.322-2.196,1.801c-1.663,0.979-3.35,1.939-5.377,1.91C30.25,23.678,30.44,23.123,30.63,22.568z"/>
	<path fill-rule="evenodd" clip-rule="evenodd" fill="#D7B93D" d="M24.37,1.469c0.968,0.517,2.109,0.441,3.094,0.898
		c0.345,0.16,0.791,0.141,0.995,0.555c-0.235,0.524-0.712,0.414-1.122,0.391c-1.149-0.064-2.192,0.272-3.137,0.869
		c-0.614,0.388-1.145,0.909-1.713,1.37c-0.44-1.116-0.356-2.229,0.019-3.34c0.374-0.016,0.391-0.275,0.38-0.555
		c0.123-0.002,0.245-0.004,0.367-0.006C23.58,1.909,23.865,1.999,24,1.469C24.123,1.469,24.247,1.469,24.37,1.469z"/>
	<path fill-rule="evenodd" clip-rule="evenodd" fill="#C2A322" d="M16.597,2.49c0.881-0.399,1.81-0.601,2.771-0.651
		c0.278-0.015,0.455-0.121,0.557-0.37c0.309,0,0.618,0,0.926,0c-0.004,0.061-0.004,0.122,0.002,0.183
		c-1.5,0.674-2.342,1.888-2.798,3.417c-0.665-0.345-0.939-1.059-1.456-1.543C16.598,3.181,16.598,2.835,16.597,2.49z"/>
	<path fill-rule="evenodd" clip-rule="evenodd" fill="#E3C54B" d="M23.259,1.469c0.003,0.061,0.001,0.122-0.005,0.182
		c-0.123,0.002-0.245,0.004-0.367,0.006c-0.678-0.002-1.355-0.003-2.033-0.005c-0.006-0.061-0.006-0.122-0.002-0.183"/>
	<path fill-rule="evenodd" clip-rule="evenodd" fill="#C8AA2B" d="M23.253,1.651c0.007-0.06,0.009-0.121,0.005-0.182
		c0.247,0,0.494,0,0.741,0C23.865,1.999,23.58,1.909,23.253,1.651z"/>
	<path fill-rule="evenodd" clip-rule="evenodd" fill="#B1900B" d="M38.999,19.617c-0.189-0.027-0.365-0.074-0.334-0.322
		c0.024-0.191,0.186-0.209,0.334-0.232C38.999,19.246,38.999,19.432,38.999,19.617z"/>
	<path fill-rule="evenodd" clip-rule="evenodd" fill="#EBEAE8" d="M30.63,22.568c-0.19,0.555-0.38,1.109-0.57,1.662
		c-0.17,0.227-0.287,0.475-0.319,0.758c-0.51,0.855-0.951,1.754-1.634,2.539c0.536,0.242,1.004,0.184,1.456,0.203
		c2.254,0.1,4.463-0.246,6.655-0.723c-0.157,0.697-0.537,1.25-1.102,1.68c-0.111,0.023-0.216,0.051-0.198,0.199l0.018-0.014
		c-0.363-0.094-0.64,0.15-0.947,0.258c-1.679,0.58-3.385,1.012-5.173,1.047c-1.361-0.313-2.721-0.324-4.081,0.006
		c-0.092,0.006-0.185,0.021-0.275,0.014c-6.914-0.701-13.077-3.105-18.143-8c-0.147-0.143-0.233-0.377-0.496-0.365
		c-0.53-2.783-0.592-5.56,0.311-8.283c0.172-0.519,0.076-1.189,0.674-1.53c0.185,3.861,2.251,6.694,5.054,9.079
		c3.87,3.295,8.402,5.195,13.361,6.135c1.812,0.342,1.815,0.324,2.765-1.295c0.287-0.334,0.483-0.719,0.617-1.135
		c0.245-0.338,0.387-0.717,0.479-1.119c0.088-0.244,0.176-0.488,0.264-0.732c0.211-0.352,0.277-0.746,0.338-1.141
		c0.043-0.178,0.087-0.354,0.13-0.531c0.271-0.658,0.341-1.355,0.4-2.055c0.038-0.301,0.076-0.605,0.114-0.908
		c0.01-0.113,0.021-0.229,0.03-0.343c0.002-0.078,0.003-0.157,0.005-0.235c0.03-0.237,0.059-0.475,0.087-0.712
		c0.003-0.433,0.006-0.865,0.009-1.298c0.007-0.429,0.225-0.924-0.547-0.975c-1.619-0.106-3.221-0.063-4.808,0.292
		c-0.637,0.049-1.219,0.247-1.728,0.64c-0.088,0.02-0.176,0.04-0.265,0.059c-0.137-0.005-0.273-0.011-0.41-0.016
		c-0.001-0.124-0.001-0.247-0.002-0.37c0.438-0.447,0.956-0.774,1.53-1.015c0.673-0.139,1.346-0.278,2.02-0.417
		c0.978-0.021,1.956-0.058,2.934-0.062c1.244-0.006,1.288-0.049,1.035-1.298c-0.024-0.119-0.076-0.232-0.114-0.348
		c-0.044-0.061-0.089-0.123-0.133-0.184c-0.014-0.066-0.028-0.131-0.042-0.197c0.037-0.656-0.349-1.166-0.59-1.727
		C29.221,9.83,28.742,9.53,29.12,9.253c0.334-0.244,0.556,0.238,0.797,0.45c0.046,0.041,0.095,0.079,0.142,0.117
		c0.275,0.612,0.55,1.225,0.824,1.836c0.127,0.556,0.255,1.111,0.383,1.667c-0.05,0.429,0.085,0.689,0.568,0.721
		c0.478,0.031,0.952,0.113,1.427,0.173c0.398,0.197,0.834,0.219,1.262,0.279c0.5,0.177,1,0.354,1.5,0.532
		c0.375,0.233,0.749,0.466,1.125,0.699c0.34,0.503,0.739,1.006-0.008,1.503c-0.12-0.496-0.388-0.847-0.921-0.937l0.008-0.078
		c-0.058-0.041-0.116-0.082-0.174-0.123c-0.343-0.172-0.674-0.376-1.072-0.4c-0.525-0.331-1.127-0.392-1.72-0.487
		c-1.885-0.598-1.92-0.572-1.752,1.327c0.002,0.03,0.005,0.061,0.007,0.091c-0.024,0.138-0.049,0.275-0.074,0.414
		c-0.321,0.353-0.297,0.72-0.048,1.098c0.044,0.645-0.456,1.193-0.323,1.854c-0.039,0.42-0.078,0.842-0.117,1.262
		C30.845,21.691,30.738,22.129,30.63,22.568z"/>
	<path fill-rule="evenodd" clip-rule="evenodd" fill="#AB8A06" d="M5.822,21.832c0.263-0.012,0.349,0.223,0.496,0.365
		c5.065,4.895,11.229,7.299,18.143,8c0.09,0.008,0.184-0.008,0.275-0.014c1.361,0.203,2.721,0.207,4.081-0.006
		c1.788-0.035,3.495-0.467,5.173-1.047c0.308-0.107,0.584-0.352,0.947-0.258c-2.176,2.854-5.093,4.621-8.507,5.504
		C17.128,36.781,7.999,31.189,5.822,21.832z"/>
	<path fill-rule="evenodd" clip-rule="evenodd" fill="#AB8A06" d="M27.987,25.938c-0.95,1.619-0.954,1.637-2.765,1.295
		c-4.959-0.939-9.491-2.84-13.361-6.135c-2.803-2.385-4.87-5.217-5.054-9.079c0.438-2.164,1.827-3.759,3.229-5.337
		c0.625-0.704,1.329-1.335,2.113-1.868c-0.185,1.669-0.502,3.336-0.526,5.008c-0.044,2.998,0.794,5.791,2.316,8.393
		c1.93,3.295,4.762,5.453,8.272,6.82C24.076,25.762,26.008,25.98,27.987,25.938z"/>
	<path fill-rule="evenodd" clip-rule="evenodd" fill="#B1900B" d="M27.987,25.938c-1.979,0.043-3.911-0.176-5.777-0.902
		c-3.511-1.367-6.343-3.525-8.272-6.82c-1.522-2.602-2.36-5.395-2.316-8.393c0.024-1.671,0.342-3.339,0.526-5.008
		c0.11-0.07,0.219-0.14,0.328-0.21c0.076-0.055,0.151-0.109,0.226-0.165c0.403-0.303,0.804-0.609,1.293-0.768
		c0.07,0.571-0.144,1.083-0.313,1.611c-0.778,2.43-1.032,4.884-0.481,7.418c0.779,3.582,2.454,6.562,5.384,8.839
		c1.936,1.506,4.111,2.357,6.463,2.914c1.183,0.279,2.402-0.063,3.556,0.348C28.47,25.219,28.274,25.604,27.987,25.938z"/>
	<path fill-rule="evenodd" clip-rule="evenodd" fill="#AB8A06" d="M36.219,27.008c-2.192,0.477-4.401,0.822-6.655,0.723
		c-0.452-0.02-0.92,0.039-1.456-0.203c0.683-0.785,1.124-1.684,1.634-2.539c0.266,0.582,0.698,0.635,1.272,0.477
		c2.911-0.799,5.553-2.051,7.588-4.365c-0.375,1.881-0.89,3.715-1.895,5.375C36.585,26.676,36.384,26.83,36.219,27.008z"/>
	<path fill-rule="evenodd" clip-rule="evenodd" fill="#B69511" d="M28.604,24.803c-1.154-0.41-2.373-0.068-3.556-0.348
		c-2.353-0.557-4.528-1.408-6.463-2.914c-2.931-2.277-4.605-5.258-5.384-8.839c-0.551-2.534-0.297-4.988,0.481-7.418
		c0.169-0.528,0.383-1.04,0.313-1.611c0.326-0.28,0.703-0.461,1.116-0.571c0.031,0.469-0.059,0.901-0.263,1.337
		c-0.259,0.554-0.5,1.132-0.633,1.726c-0.775,3.453-0.597,6.83,0.98,10.049c0.29,0.591,0.487,1.395,1.421,1.366
		c0,0.104-0.001,0.209-0.002,0.314c-0.07,0.505,0.16,0.892,0.501,1.226c0.743,0.729,1.438,1.502,2.293,2.113
		c2.909,2.08,6.114,2.965,9.676,2.451C28.992,24.086,28.85,24.465,28.604,24.803z"/>
	<path fill-rule="evenodd" clip-rule="evenodd" fill="#BA9A16" d="M16.616,17.579c-0.935,0.029-1.132-0.774-1.421-1.366
		c-1.577-3.219-1.755-6.596-0.98-10.049c0.133-0.594,0.375-1.172,0.633-1.726c0.204-0.436,0.294-0.868,0.263-1.337
		c0.496-0.204,0.991-0.406,1.486-0.61c0,0.344,0.001,0.69,0.002,1.035c-0.041,0.125-0.083,0.25-0.124,0.376
		c-0.849-0.146-0.965,0.566-1.136,1.073c-0.557,1.652-0.881,3.323-0.833,5.112c0.05,1.899,0.291,3.692,1.124,5.405
		c0.22,0.453,0.486,0.688,0.992,0.605C16.62,16.591,16.618,17.085,16.616,17.579z"/>
	<path fill-rule="evenodd" clip-rule="evenodd" fill="#B1900B" d="M38.602,21.1c-2.035,2.314-4.677,3.566-7.588,4.365
		c-0.574,0.158-1.006,0.105-1.272-0.477c0.032-0.283,0.149-0.531,0.319-0.758c2.027,0.029,3.714-0.932,5.377-1.91
		c0.815-0.479,1.578-1.063,2.196-1.801c0.211-0.252,0.474-0.385,0.809-0.348c0.006,0.164,0.048,0.309,0.216,0.383
		C38.64,20.736,38.621,20.918,38.602,21.1z"/>
	<path fill-rule="evenodd" clip-rule="evenodd" fill="#AB8A06" d="M38.659,20.555c-0.168-0.074-0.209-0.219-0.216-0.383
		c0.116-0.002,0.232-0.004,0.349-0.006C38.748,20.295,38.703,20.426,38.659,20.555z"/>
	<path fill-rule="evenodd" clip-rule="evenodd" fill="#AB8A06" d="M12.702,4.44c-0.075,0.055-0.15,0.11-0.226,0.165
		C12.552,4.55,12.627,4.495,12.702,4.44z"/>
	<path fill-rule="evenodd" clip-rule="evenodd" fill="#AB8A06" d="M34.919,28.887c-0.018-0.148,0.087-0.176,0.198-0.199
		C35.052,28.754,34.986,28.82,34.919,28.887z"/>
	<path fill-rule="evenodd" clip-rule="evenodd" fill="#DEC045" d="M33.26,14.219c-0.475-0.06-0.95-0.142-1.427-0.173
		c-0.483-0.032-0.618-0.292-0.568-0.721c0.268,0.005,0.518,0.274,0.782-0.145c0.967-1.53,1.317-3.14,0.838-4.908
		c-0.711-2.623-3.656-4.377-6.164-3.895c-1.57,0.302-2.708,1.207-3.889,2.123c-0.215-0.279-0.33-0.595-0.344-0.947
		c0.568-0.461,1.099-0.982,1.713-1.37c0.945-0.597,1.987-0.933,3.137-0.869c0.41,0.023,0.887,0.133,1.122-0.391
		c1.052,0.084,1.88,0.688,2.715,1.231c1.042,0.677,2.103,1.35,2.843,2.393c0.09,0.541,0.161,1.085,0.274,1.621
		c0.397,1.861,0.286,3.637-0.806,5.269C33.331,13.667,33.229,13.927,33.26,14.219z"/>
	<path fill-rule="evenodd" clip-rule="evenodd" fill="#D7B93D" d="M33.26,14.219c-0.031-0.292,0.07-0.552,0.226-0.783
		c1.092-1.632,1.203-3.408,0.806-5.269c-0.114-0.536-0.184-1.081-0.274-1.621c0.822,0.828,1.684,1.625,2.197,2.704
		c-0.06,0.135-0.154,0.265-0.172,0.404c-0.232,1.702-0.505,3.389-1.52,4.844C34.095,14.438,33.658,14.416,33.26,14.219z"/>
	<path fill-rule="evenodd" clip-rule="evenodd" fill="#CFB134" d="M34.522,14.498c1.015-1.456,1.288-3.143,1.52-4.844
		c0.019-0.14,0.113-0.27,0.172-0.404c0.424,0.743,1.061,1.379,1.142,2.292c-0.236,1.243-0.879,2.329-1.334,3.488
		C35.522,14.853,35.022,14.675,34.522,14.498z"/>
	<path fill-rule="evenodd" clip-rule="evenodd" fill="#C8AA2B" d="M36.022,15.03c0.455-1.159,1.099-2.245,1.334-3.488
		c0.693,0.972,0.931,2.1,1.111,3.248c-0.554,0.152-0.561,1.077-1.321,0.939C36.771,15.496,36.396,15.263,36.022,15.03z"/>
	<path fill-rule="evenodd" clip-rule="evenodd" fill="#C2A322" d="M36.218,16.295c0.533,0.09,0.801,0.44,0.921,0.937
		c-1.232,2.061-3.132,3.258-5.298,4.124c-0.336,0.133-0.589-0.104-0.888-0.104c0.039-0.42,0.078-0.842,0.117-1.262
		c0.643,0.287,1.226,0.16,1.824-0.182c1.209-0.689,2.167-1.656,3.107-2.655C36.241,16.897,36.22,16.6,36.218,16.295z"/>
	<path fill-rule="evenodd" clip-rule="evenodd" fill="#ECEBE6" d="M22.488,5.552c0.014,0.352,0.129,0.668,0.344,0.947
		c0.149,0.372,0.22,0.746,0.226,1.159c0.011,0.728,0.334,0.976,0.953,0.866c0.646-0.957,1.504-1.462,2.693-1.258
		c0.643,0.473,1.285,0.946,1.927,1.419c-0.01,0.096-0.021,0.192-0.032,0.288c-0.672-0.14-1.135,0.211-1.481,0.707
		c-0.526,0.754-1.004,1.542-1.502,2.316c-0.229,0.182-0.453,0.367-0.526,0.671c-0.44,0.27-0.88,0.54-1.319,0.809
		c-0.665,0.137-1.329,0.273-1.993,0.41c-0.512-0.05-0.998,0.083-1.483,0.212c-0.337,0.024-0.657,0.099-0.926,0.321
		c-0.88,0.229-1.318,0.928-1.742,1.642c-0.178,0.223-0.3,0.471-0.333,0.758c-0.231,0.333-0.293,0.725-0.38,1.108
		c-0.1-0.011-0.199-0.022-0.299-0.033c0-0.105,0.001-0.21,0.002-0.314c0.002-0.494,0.004-0.988,0.006-1.482
		c0.047-0.235,0.095-0.471,0.143-0.706c0.255-0.499,0.509-0.997,0.764-1.496c0.473-0.42,0.946-0.841,1.419-1.261
		c1.348-0.573,1.377-0.792,0.23-1.709c-0.258-0.207-0.517-0.414-0.775-0.62c-0.332-0.421-0.663-0.843-0.995-1.264
		c-0.605-1.089-0.897-2.269-1.016-3.499c0.028-0.547,0.056-1.094,0.083-1.641c0.041-0.125,0.083-0.251,0.124-0.376
		c0.517,0.484,0.791,1.198,1.456,1.542c0.464,0.472,1.013,0.803,1.644,1c0.65,0.458,1.438,0.615,2.13,0.979
		c0.135,0.071,0.285,0.153,0.392-0.02c0.114-0.183-0.058-0.263-0.175-0.34c-0.707-0.467-1.414-0.936-2.308-0.947
		c-0.503-0.314-0.339-0.7-0.132-1.106c0.544-1.065,1.438-1.796,2.36-2.5c0.193-0.147,0.39-0.151,0.541,0.079
		C22.131,3.323,22.048,4.437,22.488,5.552z"/>
	<path fill-rule="evenodd" clip-rule="evenodd" fill="#C8AA2B" d="M19.699,6.068c-0.63-0.197-1.18-0.528-1.644-1
		c0.457-1.528,1.298-2.742,2.798-3.416c0.678,0.002,1.355,0.003,2.033,0.005c0.011,0.279-0.006,0.539-0.38,0.555
		c-0.15-0.23-0.347-0.226-0.541-0.079c-0.923,0.704-1.816,1.435-2.36,2.5c-0.208,0.407-0.371,0.792,0.132,1.106
		C19.725,5.85,19.712,5.959,19.699,6.068z"/>
	<path fill-rule="evenodd" clip-rule="evenodd" fill="#C8AA2B" d="M17.625,16.06c0.423-0.713,0.862-1.412,1.742-1.641
		c-0.042,0.52,0.177,0.922,0.479,1.342c1.412,1.969,3.41,3.02,5.66,3.667c1.582,0.457,3.152,0.143,4.71-0.203
		c-0.059,0.699-0.128,1.396-0.401,2.055c-1.474-0.031-2.957,0.131-4.418-0.186c-2.043-0.439-3.877-1.248-5.399-2.756
		C19.222,17.567,18.655,16.567,17.625,16.06z"/>
	<path fill-rule="evenodd" clip-rule="evenodd" fill="#E3C54B" d="M24.011,8.524c-0.619,0.11-0.942-0.138-0.953-0.866
		c-0.006-0.414-0.077-0.787-0.226-1.159c1.18-0.916,2.318-1.82,3.889-2.123c2.508-0.482,5.453,1.272,6.164,3.895
		c0.479,1.768,0.129,3.377-0.838,4.908c-0.264,0.419-0.515,0.15-0.782,0.145c-0.127-0.556-0.255-1.112-0.382-1.667
		c0.734-0.012,0.818-0.627,0.869-1.101c0.204-1.87-0.491-3.399-2.094-4.373c-1.426-0.867-2.942-0.669-4.361,0.112
		C24.198,6.901,23.762,7.732,24.011,8.524z"/>
	<path fill-rule="evenodd" clip-rule="evenodd" fill="#F2D55E" d="M25.616,11.996c0.499-0.773,0.976-1.562,1.502-2.316
		c0.346-0.495,0.809-0.846,1.481-0.708c0.132,0.113,0.279,0.127,0.315-0.061c0.034-0.179-0.137-0.213-0.284-0.226
		c-0.642-0.473-1.284-0.946-1.926-1.419c0.697-0.63,1.464-0.503,2.217-0.162c0.909,0.413,1.321,1.224,1.544,2.141
		c0.074,0.301-0.046,0.544-0.409,0.576c-0.047-0.039-0.096-0.077-0.142-0.117c-0.241-0.212-0.463-0.694-0.797-0.45
		c-0.378,0.276,0.102,0.577,0.223,0.859c0.242,0.561,0.627,1.07,0.59,1.727c-0.141,0.05-0.303,0.072-0.42,0.156
		C28.032,13.058,27.069,13.062,25.616,11.996z"/>
	<path fill-rule="evenodd" clip-rule="evenodd" fill="#BE9D1C" d="M16.913,17.926c0.087-0.383,0.149-0.774,0.38-1.108
		c0.677,0.443,1.178,1.074,1.735,1.643c2.958,3.018,6.485,4.205,10.658,3.35c-0.061,0.395-0.127,0.789-0.338,1.141
		c-1.395-0.063-2.792,0.209-4.187-0.072c-3.088-0.625-5.612-2.195-7.687-4.531C17.312,18.166,17.203,17.931,16.913,17.926z"/>
	<path fill-rule="evenodd" clip-rule="evenodd" fill="#CFB134" d="M30.216,19.225c-1.558,0.346-3.128,0.66-4.71,0.203
		c-2.25-0.646-4.249-1.697-5.66-3.667c-0.302-0.42-0.521-0.823-0.479-1.342c0.269-0.222,0.589-0.296,0.926-0.321
		c-0.024,0.291,0.071,0.557,0.235,0.78c1.3,1.765,2.994,2.927,5.144,3.448c1.564,0.379,3.106,0.039,4.658-0.01
		C30.292,18.619,30.254,18.924,30.216,19.225z"/>
	<path fill-rule="evenodd" clip-rule="evenodd" fill="#ECCE56" d="M30.058,9.821c0.362-0.031,0.482-0.274,0.409-0.576
		c-0.223-0.917-0.635-1.728-1.544-2.141c-0.753-0.342-1.521-0.469-2.217,0.162c-1.189-0.204-2.047,0.301-2.694,1.258
		c-0.25-0.792,0.187-1.624,1.285-2.229c1.419-0.781,2.935-0.979,4.361-0.112c1.603,0.974,2.298,2.503,2.094,4.373
		c-0.051,0.474-0.135,1.088-0.869,1.101C30.608,11.045,30.333,10.433,30.058,9.821z"/>
	<path fill-rule="evenodd" clip-rule="evenodd" fill="#D7B93D" d="M30.33,18.316c-1.552,0.049-3.094,0.389-4.658,0.01
		c-2.15-0.521-3.844-1.684-5.144-3.448c-0.164-0.223-0.26-0.489-0.235-0.78c0.486-0.128,0.972-0.262,1.483-0.212
		c-0.004,0.688,0.714,0.921,0.927,1.472c0.001,0.123,0.001,0.246,0.002,0.37c0.032,0.101,0.063,0.203,0.095,0.304
		c0.105-0.096,0.21-0.191,0.315-0.288c0.088-0.019,0.176-0.039,0.265-0.059c0.337,0.229,0.297,0.746,0.716,0.92
		c0.876,0.363,1.737,0.736,2.714,0.802c1.244,0.083,2.436-0.194,3.643-0.381c-0.029,0.237-0.058,0.475-0.087,0.712
		c-0.163,0.075-0.179,0.153-0.005,0.234C30.351,18.088,30.34,18.203,30.33,18.316z"/>
	<path fill-rule="evenodd" clip-rule="evenodd" fill="#BA9A16" d="M16.913,17.926c0.29,0.004,0.399,0.24,0.561,0.421
		c2.075,2.336,4.599,3.906,7.687,4.531c1.395,0.281,2.792,0.01,4.187,0.072c-0.088,0.244-0.176,0.488-0.264,0.732
		c-3.562,0.514-6.767-0.371-9.675-2.451c-0.854-0.611-1.55-1.385-2.293-2.113c-0.342-0.334-0.571-0.721-0.501-1.226
		C16.714,17.904,16.813,17.916,16.913,17.926z"/>
	<path fill-rule="evenodd" clip-rule="evenodd" fill="#C2A322" d="M29.686,21.811c-4.173,0.855-7.7-0.332-10.658-3.35
		c-0.557-0.569-1.058-1.2-1.735-1.643c0.033-0.287,0.154-0.535,0.333-0.758c1.029,0.506,1.597,1.507,2.373,2.277
		c1.521,1.508,3.356,2.316,5.399,2.756c1.461,0.316,2.944,0.154,4.418,0.186C29.773,21.457,29.729,21.633,29.686,21.811z"/>
	<path fill-rule="evenodd" clip-rule="evenodd" fill="#C8AA2B" d="M36.218,16.295c0.002,0.304,0.023,0.602-0.217,0.858
		c-0.94,0.999-1.897,1.966-3.107,2.655c-0.598,0.342-1.181,0.469-1.824,0.182c-0.133-0.66,0.367-1.209,0.323-1.854
		c0.066,0,0.132-0.002,0.199-0.002c0.325-0.076,0.693-0.076,0.966-0.239c0.952-0.565,1.704-1.368,2.422-2.201
		c0.398,0.024,0.729,0.229,1.072,0.4c0.011,0.108,0.051,0.174,0.174,0.123L36.218,16.295z"/>
	<path fill-rule="evenodd" clip-rule="evenodd" fill="#DEC045" d="M30.453,17.026c-1.208,0.187-2.399,0.464-3.643,0.381
		c-0.977-0.066-1.837-0.438-2.714-0.802c-0.419-0.174-0.379-0.69-0.716-0.92c0.509-0.393,1.091-0.591,1.728-0.64
		c0.079,0.998,0.88,0.95,1.553,1.046c1.292,0.186,2.536-0.22,3.802-0.363C30.459,16.161,30.457,16.594,30.453,17.026z"/>
	<path fill-rule="evenodd" clip-rule="evenodd" fill="#ECCE56" d="M25.616,11.996c1.453,1.066,2.416,1.062,3.897-0.001
		c0.117-0.084,0.279-0.106,0.42-0.156c0.014,0.065,0.028,0.131,0.042,0.197c-0.03,0.115,0.043,0.155,0.133,0.184
		c0.039,0.116,0.09,0.229,0.114,0.348c0.253,1.249,0.208,1.292-1.035,1.298c-0.978,0.004-1.956,0.04-2.935,0.062
		c-0.337-0.467-1.175-0.472-1.163-1.26C25.163,12.363,25.387,12.178,25.616,11.996z"/>
	<path fill-rule="evenodd" clip-rule="evenodd" fill="#E3C54B" d="M30.462,15.729c-1.266,0.143-2.509,0.549-3.802,0.363
		c-0.673-0.096-1.474-0.048-1.553-1.046c1.587-0.354,3.189-0.397,4.808-0.292C30.688,14.805,30.469,15.3,30.462,15.729z"/>
	<path fill-rule="evenodd" clip-rule="evenodd" fill="#CFB134" d="M34.98,15.694c-0.718,0.833-1.47,1.636-2.422,2.201
		c-0.273,0.163-0.642,0.163-0.966,0.239c-0.053-0.365,0.134-0.763-0.15-1.096c0.025-0.138,0.05-0.275,0.074-0.414
		c0.938,0.006,1.514-0.462,1.745-1.418C33.853,15.303,34.455,15.364,34.98,15.694z"/>
	<path fill-rule="evenodd" clip-rule="evenodd" fill="#DEC045" d="M22.704,15.358c-0.212-0.551-0.931-0.785-0.927-1.472
		c0.664-0.137,1.329-0.273,1.993-0.41c0.302,0.21,0.268,0.6,0.463,0.867C23.659,14.584,23.142,14.912,22.704,15.358z"/>
	<path fill-rule="evenodd" clip-rule="evenodd" fill="#D7B93D" d="M33.26,15.208c-0.231,0.956-0.807,1.424-1.745,1.418
		c-0.002-0.03-0.005-0.061-0.007-0.091C31.34,14.636,31.375,14.609,33.26,15.208z"/>
	<path fill-rule="evenodd" clip-rule="evenodd" fill="#E3C54B" d="M24.233,14.344c-0.195-0.267-0.162-0.657-0.463-0.867
		c0.439-0.27,0.879-0.54,1.319-0.81c-0.012,0.789,0.826,0.793,1.163,1.26C25.58,14.066,24.907,14.205,24.233,14.344z"/>
	<path fill-rule="evenodd" clip-rule="evenodd" fill="#ECEBE6" d="M28.816,30.178c-1.36,0.213-2.72,0.209-4.081,0.006
		C26.095,29.854,27.456,29.865,28.816,30.178z"/>
	<path fill-rule="evenodd" clip-rule="evenodd" fill="#D7B93D" d="M31.441,17.039c0.284,0.333,0.098,0.731,0.15,1.096
		c-0.066,0-0.132,0.002-0.199,0.002C31.144,17.759,31.12,17.392,31.441,17.039z"/>
	<path fill-rule="evenodd" clip-rule="evenodd" fill="#ECEBE6" d="M23.115,15.744c-0.105,0.096-0.21,0.192-0.315,0.288
		c-0.032-0.101-0.063-0.203-0.095-0.304C22.842,15.733,22.979,15.739,23.115,15.744z"/>
	<path fill-rule="evenodd" clip-rule="evenodd" fill="#ECEBE6" d="M30.108,12.22c-0.09-0.029-0.163-0.069-0.133-0.184
		C30.019,12.097,30.063,12.159,30.108,12.22z"/>
	<path fill-rule="evenodd" clip-rule="evenodd" fill="#ECEBE6" d="M36.226,16.218c-0.123,0.051-0.163-0.015-0.174-0.123
		C36.11,16.136,36.168,16.177,36.226,16.218z"/>
	<path fill-rule="evenodd" clip-rule="evenodd" fill="#CFB134" d="M30.36,17.973c-0.174-0.082-0.158-0.16,0.005-0.234
		C30.364,17.816,30.363,17.895,30.36,17.973z"/>
	<path fill-rule="evenodd" clip-rule="evenodd" fill="#BE9D1C" d="M16.476,3.902c-0.028,0.547-0.056,1.094-0.083,1.641
		c-0.629,0.111-0.785,0.604-0.916,1.126c-0.635,2.53-0.509,5.024,0.322,7.492c0.179,0.532,0.325,1.071,0.967,1.229
		c-0.047,0.235-0.095,0.471-0.143,0.706c-0.505,0.083-0.771-0.152-0.992-0.605c-0.833-1.713-1.074-3.506-1.124-5.405
		c-0.048-1.789,0.276-3.459,0.833-5.112C15.511,4.468,15.627,3.756,16.476,3.902z"/>
	<path fill-rule="evenodd" clip-rule="evenodd" fill="#C2A322" d="M16.765,15.391c-0.642-0.159-0.788-0.697-0.967-1.229
		c-0.831-2.468-0.957-4.962-0.322-7.492c0.131-0.522,0.286-1.015,0.916-1.126c0.119,1.23,0.41,2.41,1.016,3.499
		c-0.618,0.102-0.671,0.585-0.62,1.042c0.145,1.288,0.195,2.6,0.741,3.811C17.274,14.394,17.02,14.892,16.765,15.391z"/>
	<path fill-rule="evenodd" clip-rule="evenodd" fill="#C8AA2B" d="M17.529,13.895c-0.546-1.211-0.597-2.523-0.741-3.811
		c-0.051-0.458,0.002-0.94,0.62-1.042c0.332,0.421,0.663,0.842,0.995,1.264c-0.503,0.054-0.619,0.407-0.469,0.784
		c0.229,0.575-0.081,1.535,1.015,1.544C18.475,13.054,18.002,13.475,17.529,13.895z"/>
	<path fill-rule="evenodd" clip-rule="evenodd" fill="#CFB134" d="M18.948,12.634c-1.096-0.01-0.787-0.97-1.015-1.544
		c-0.15-0.377-0.034-0.73,0.469-0.784c0.259,0.206,0.518,0.413,0.776,0.62C20.326,11.842,20.296,12.061,18.948,12.634z"/>
	<path fill-rule="evenodd" clip-rule="evenodd" fill="#D7B93D" d="M19.699,6.068c0.013-0.109,0.026-0.218,0.039-0.328
		c0.894,0.011,1.602,0.479,2.308,0.947c0.117,0.077,0.289,0.157,0.175,0.34c-0.106,0.172-0.256,0.09-0.392,0.02
		C21.136,6.683,20.349,6.526,19.699,6.068z"/>
	<path fill-rule="evenodd" clip-rule="evenodd" fill="#EBEAE8" d="M28.631,8.686c0.147,0.013,0.318,0.047,0.284,0.226
		c-0.036,0.188-0.183,0.174-0.315,0.061C28.61,8.878,28.621,8.782,28.631,8.686z"/>
</g>
<text transform="matrix(0.955 0 0 1 47.2495 20.3604)"><tspan x="0" y="0" fill="#E3C54B" font-family="'Aparajita'" font-size="21">C</tspan><tspan x="11.279" y="0" fill="#FFFFFF" font-family="'Aparajita'" font-size="21">.</tspan><tspan x="15.504" y="0" fill="#E3C54B" font-family="'Aparajita'" font-size="21">W</tspan><tspan x="31.459" y="0" fill="#FFFFFF" font-family="'Aparajita'" font-size="21">.</tspan><tspan x="35.683" y="0" fill="#E3C54B" font-family="'Aparajita'" font-size="21">C</tspan><tspan x="46.963" y="0" fill="#FFFFFF" font-family="'Aparajita'" font-size="21">.</tspan><tspan x="51.187" y="0" fill="#E3C54B" font-family="'Aparajita'" font-size="21">I</tspan></text>
<text transform="matrix(0.955 0 0 1 46.4165 26.5068)" fill="#FFFFFF" font-family="'Aparajita'" font-size="5">Christ Worship</text>
<text transform="matrix(0.955 0 0 1 72.748 26.5078)" fill="#FFFFFF" font-family="'Aparajita'" font-size="5">Church International</text>
</svg>
